<svg xmlns="http://www.w3.org/2000/svg" viewBox="0 0 1100.95 1500"><defs><style>.cls-1{fill:#fff;}.cls-2{fill:#ebbd15;}.cls-3{fill:#ebb315;}</style></defs><g id="Calque_2" data-name="Calque 2"><g id="Calque_1-2" data-name="Calque 1"><path class="cls-1" d="M1089,1113.84l-125.33,376c-4.52,13.54-23.67,13.53-28.18,0h0c-1.67-4-3.15-8.06-4.53-12.13l-11.76-35.37A231.46,231.46,0,0,0,699.6,1284.11H470.81a46.28,46.28,0,0,1-43.89-60.93l74.35-223a92.47,92.47,0,0,1,87.78-63.33h33.24c63.14,0,107.77-61.94,87.86-121.85L661,667.56c-1.21-3.52-2.23-7-3.24-10.55A230.63,230.63,0,0,1,661,521.09L786.54,144.44c4.45-13.35,23.32-13.35,27.77,0h0l34.26,102.68,243.88,731.63A230.14,230.14,0,0,1,1089,1113.84Z"/><path class="cls-2" d="M584.75,1042.62a19.16,19.16,0,0,1,18.16-13.11l19.38,0A185.26,185.26,0,0,0,798,785.86L748.83,638.29c-.94-2.76-1.47-4.71-2-6.65a137.51,137.51,0,0,1,2-81.2l46.12-138.38a5.81,5.81,0,0,1,11,0L1003.8,1005.6a137.3,137.3,0,0,1-2.59,78.89L939.05,1271a12.75,12.75,0,0,1-20.71,5.39,323.58,323.58,0,0,0-218.74-84.82H546.1a7.94,7.94,0,0,1-7.53-10.45Z"/><path class="cls-1" d="M617.66,0H501.55A231.45,231.45,0,0,0,282.76,155.83L61.2,820.52,11.94,968.38a230.6,230.6,0,0,0,0,146.48l121.64,364.89c8.82,26.46,46.24,26.47,55.06,0L219,1388.82,661.61,61A46.33,46.33,0,0,0,617.66,0Z"/><path class="cls-3" d="M99.79,1085.58a137.25,137.25,0,0,1,0-87.83L370.43,185.62a138.83,138.83,0,0,1,131.12-93h32.63a13.91,13.91,0,0,1,13.2,18.31L170,1243.11a9.3,9.3,0,0,1-17.65,0Z"/></g></g></svg>